<?xml version="1.0" encoding="UTF-8"?>
<svg id="Capa_2" data-name="Capa 2" xmlns="http://www.w3.org/2000/svg" viewBox="0 0 1080 310.75">
  <defs>
    <style>
      .cls-1 {
        fill: #4964f6;
      }

      .cls-2 {
        fill: #fdffff;
      }
    </style>
  </defs>
  <g id="Capa_1-2" data-name="Capa 1">
    <g>
      <g>
        <path class="cls-2" d="M406.2,45.42h-30.55v74.16c0,4.93-1.22,9.42-3.64,13.47-2.36,3.93-5.45,7.09-9.31,9.42-.11.09-.22.15-.33.22-4.01,2.37-8.51,3.56-13.54,3.56s-9.28-1.19-13.34-3.56c-4.04-2.37-7.29-5.6-9.7-9.65-2.43-4.04-3.64-8.53-3.64-13.47V45.42h-30.57v82.18c0,9.18,2.24,17.51,6.72,24.99,4.45,7.48,10.46,13.45,17.98,17.92,7.51,4.47,15.82,6.7,24.93,6.7,6.75,0,13.1-1.32,19.03-3.93,5.94-2.63,11.06-6.21,15.42-10.72l.11,11.41h30.57l-.13-128.54Z"/>
        <path class="cls-2" d="M668.63,143.83c-3.93,1.87-8.07,2.82-12.41,2.82-6.01,0-11.45-1.63-16.29-4.9-4.84-3.25-8.68-7.57-11.52-12.97-2.84-5.38-4.27-11.2-4.27-17.47s1.43-12.21,4.27-17.6c2.84-5.38,6.68-9.72,11.52-13.02,4.84-3.3,10.28-4.95,16.29-4.95,4.17,0,8.25.93,12.22,2.76,3.95,1.84,7.4,4.43,10.33,7.77l27.55-14.78c-5.75-8.01-12.99-14.41-21.67-19.16-8.68-4.77-18.16-7.14-28.44-7.14-8.61,0-16.7,1.71-24.3,5.14-7.61,3.41-14.27,8.16-19.98,14.21-5.73,6.05-10.2,13.08-13.47,21.05-3.26,7.96-4.88,16.55-4.88,25.73,0,12.11,2.82,23.15,8.44,33.13,5.64,9.98,13.21,17.94,22.69,23.87,9.48,5.92,19.98,8.89,31.5,8.89,10.28,0,19.76-2.37,28.44-7.14,8.68-4.75,15.92-11.06,21.67-18.9l-27.55-14.91c-2.84,3.17-6.23,5.69-10.15,7.59Z"/>
        <path class="cls-2" d="M791.32,45.18c-6.77,0-13.08,1.28-18.95,3.89-5.87,2.61-10.9,6.15-15.12,10.6l-.13-14.99h-30.22l.13,132.52h30.22v-75.04c0-4.88,1.17-9.3,3.54-13.32,2.35-4,5.52-7.19,9.54-9.54,4-2.35,8.44-3.52,13.32-3.52,3.14,0,6.27.61,9.41,1.85l11.89-30.47c-4.53-1.32-9.08-1.98-13.63-1.98Z"/>
        <path class="cls-2" d="M921.7,78c-5.64-10.02-13.19-17.99-22.67-23.93-9.48-5.94-19.98-8.89-31.5-8.89-8.61,0-16.71,1.71-24.32,5.14-7.59,3.41-14.25,8.16-19.98,14.21-5.71,6.05-10.2,13.08-13.47,21.05-3.25,7.96-4.88,16.55-4.88,25.73,0,12.11,2.82,23.15,8.46,33.13,5.64,9.98,13.19,17.94,22.67,23.87,9.48,5.92,19.98,8.89,31.52,8.89,8.68,0,16.81-1.71,24.36-5.14,7.55-3.41,14.19-8.16,19.92-14.21,5.71-6.05,10.2-13.04,13.47-20.98,3.25-7.94,4.88-16.45,4.88-25.56,0-12.19-2.82-23.3-8.46-33.32ZM895.39,128.86c-2.8,5.34-6.62,9.65-11.46,12.89-4.84,3.26-10.31,4.9-16.4,4.9-5.77,0-11.09-1.58-15.97-4.71-4.9-3.12-8.79-7.36-11.72-12.71-2.93-5.34-4.38-11.32-4.38-17.92s1.41-12.22,4.25-17.66c2.84-5.44,6.7-9.78,11.54-13.02,4.92-3.31,10.42-4.95,16.56-4.9,5.66.05,11.26,1.79,15.96,4.93,4.82,3.22,8.65,7.48,11.49,12.81,2.89,5.38,4.32,11.33,4.32,17.85s-1.39,12.21-4.19,17.55Z"/>
        <path class="cls-2" d="M1074.97,85.32c-3.34-7.85-8-14.77-14-20.75-5.98-6-12.9-10.68-20.75-14.07-7.85-3.39-16.31-5.08-25.39-5.08-7.93,0-14.86,1.76-20.75,5.27-5.91,3.52-10.9,8.07-14.93,13.69v-19.69h-30.24v158.96l17.71,17.71c4.62,4.62,12.52,1.35,12.52-5.19v-59.11c4.04,5.61,9.03,10.18,14.93,13.69,5.89,3.5,12.82,5.27,20.75,5.27,9.08,0,17.54-1.69,25.39-5.08,7.85-3.39,14.77-8.07,20.75-14.07,6-5.98,10.66-12.93,14-20.86,3.36-7.94,5.03-16.4,5.03-25.41s-1.67-17.43-5.03-25.26ZM1044.55,128.86c-3.14,5.5-7.34,9.85-12.62,13.08-5.28,3.21-11.12,4.83-17.47,4.83s-11.91-1.63-16.86-4.9c-4.95-3.25-8.84-7.63-11.65-13.12-2.81-5.5-4.2-11.56-4.2-18.16s1.39-12.64,4.2-18.09c2.81-5.45,6.7-9.8,11.65-13.06,4.95-3.27,10.57-4.9,16.86-4.9s12.27,1.63,17.52,4.9c5.25,3.27,9.43,7.61,12.57,13.06,3.16,5.45,4.72,11.48,4.72,18.09s-1.56,12.79-4.72,18.27Z"/>
        <path class="cls-2" d="M550.21,85.32c-3.34-7.85-8-14.77-14-20.75-5.98-6-12.9-10.68-20.75-14.07-7.85-3.39-16.31-5.08-25.39-5.08-7.93,0-14.86,1.76-20.75,5.27-5.91,3.52-10.9,8.07-14.93,13.69v-19.69h-30.24v158.96l17.71,17.71c4.62,4.62,12.52,1.35,12.52-5.19v-59.11c4.04,5.61,9.03,10.18,14.93,13.69,5.89,3.5,12.82,5.27,20.75,5.27,9.08,0,17.54-1.69,25.39-5.08,7.85-3.39,14.77-8.07,20.75-14.07,6-5.98,10.66-12.93,14-20.86,3.36-7.94,5.03-16.4,5.03-25.41s-1.67-17.43-5.03-25.26ZM519.79,128.86c-3.14,5.5-7.34,9.85-12.62,13.08-5.28,3.21-11.12,4.83-17.47,4.83s-11.91-1.63-16.86-4.9c-4.95-3.25-8.84-7.63-11.65-13.12-2.81-5.5-4.2-11.56-4.2-18.16s1.39-12.64,4.2-18.09c2.81-5.45,6.7-9.8,11.65-13.06,4.95-3.27,10.57-4.9,16.86-4.9s12.27,1.63,17.52,4.9c5.25,3.27,9.43,7.61,12.57,13.06,3.16,5.45,4.72,11.48,4.72,18.09s-1.56,12.79-4.72,18.27Z"/>
      </g>
      <g>
        <path class="cls-1" d="M247.65,79.55v121.08c0,8.11-9.82,12.19-15.56,6.44l-55.98-55.98c-1.71-1.71-2.67-4.03-2.67-6.45v-61.31c0-5.04-4.08-9.11-9.11-9.11h-60.54c-5.03,0-9.11-4.08-9.11-9.11V9.11c0-5.03,4.08-9.11,9.11-9.11h64.33c3.16,0,6.19,1.16,8.54,3.25l67.65,67.66s.01.01.01.01c2.13,2.36,3.33,5.43,3.33,8.63Z"/>
        <path class="cls-1" d="M0,143.07V22c0-8.11,9.82-12.19,15.56-6.44l55.98,55.98c1.71,1.71,2.67,4.03,2.67,6.45v61.31c0,5.04,4.08,9.11,9.11,9.11h60.54c5.03,0,9.11,4.08,9.11,9.11v55.99c0,5.03-4.08,9.11-9.11,9.11h-64.33c-3.16,0-6.19-1.16-8.54-3.25L3.34,151.71s-.01-.01-.01-.01c-2.13-2.36-3.33-5.43-3.33-8.63Z"/>
      </g>
      <g>
        <path class="cls-2" d="M291.58,289.13v-60.54h20.02c4.18,0,8.1.79,11.76,2.36,3.66,1.57,6.88,3.75,9.64,6.53,2.77,2.78,4.94,6,6.51,9.64,1.57,3.65,2.36,7.56,2.36,11.74s-.79,8.09-2.36,11.74c-1.57,3.65-3.74,6.86-6.51,9.64-2.77,2.78-5.98,4.96-9.64,6.53-3.66,1.57-7.58,2.36-11.76,2.36h-20.02ZM297.63,283.08h13.97c3.34,0,6.48-.63,9.4-1.88,2.93-1.25,5.5-2.99,7.72-5.21,2.22-2.22,3.96-4.79,5.21-7.72,1.25-2.93,1.88-6.06,1.88-9.4s-.63-6.48-1.88-9.4c-1.25-2.93-3-5.5-5.23-7.72-2.23-2.22-4.81-3.96-7.72-5.21-2.91-1.25-6.04-1.88-9.38-1.88h-13.97v48.43Z"/>
        <path class="cls-2" d="M384.63,245.89h6.05v43.24h-6.05l-.22-8.04c-1.41,2.74-3.39,4.95-5.92,6.64-2.54,1.69-5.56,2.53-9.08,2.53-3.17,0-6.14-.6-8.91-1.79-2.77-1.2-5.2-2.85-7.31-4.95-2.1-2.1-3.75-4.54-4.93-7.31-1.18-2.77-1.77-5.74-1.77-8.91s.58-6.04,1.75-8.78c1.17-2.74,2.78-5.15,4.84-7.22,2.06-2.08,4.45-3.7,7.18-4.86,2.72-1.17,5.64-1.75,8.76-1.75,3.6,0,6.74.86,9.43,2.57,2.68,1.72,4.81,3.96,6.4,6.72l-.22-8.09ZM369.28,284.37c3.09,0,5.74-.76,7.96-2.27,2.22-1.51,3.93-3.55,5.12-6.12,1.2-2.57,1.79-5.39,1.79-8.47s-.61-6.03-1.82-8.58c-1.21-2.55-2.93-4.58-5.15-6.08-2.22-1.5-4.86-2.25-7.91-2.25s-5.84.76-8.37,2.27-4.53,3.55-6.01,6.12c-1.49,2.57-2.23,5.4-2.23,8.52s.76,5.99,2.29,8.54c1.53,2.55,3.55,4.58,6.08,6.08,2.52,1.5,5.27,2.25,8.24,2.25Z"/>
        <path class="cls-2" d="M421.43,251.94h-10.33l-.04,37.19h-6.05l.04-37.19h-7.83v-6.05h7.83l-.04-13.58h6.05l.04,13.58h10.33v6.05Z"/>
        <path class="cls-2" d="M463.54,245.89h6.05v43.24h-6.05l-.22-8.04c-1.41,2.74-3.39,4.95-5.92,6.64-2.54,1.69-5.56,2.53-9.08,2.53-3.17,0-6.14-.6-8.91-1.79-2.77-1.2-5.2-2.85-7.31-4.95-2.1-2.1-3.75-4.54-4.93-7.31-1.18-2.77-1.77-5.74-1.77-8.91s.58-6.04,1.75-8.78c1.17-2.74,2.78-5.15,4.84-7.22,2.06-2.08,4.45-3.7,7.18-4.86,2.72-1.17,5.64-1.75,8.76-1.75,3.6,0,6.74.86,9.43,2.57,2.68,1.72,4.81,3.96,6.4,6.72l-.22-8.09ZM448.19,284.37c3.09,0,5.74-.76,7.96-2.27,2.22-1.51,3.93-3.55,5.12-6.12,1.2-2.57,1.79-5.39,1.79-8.47s-.61-6.03-1.82-8.58c-1.21-2.55-2.93-4.58-5.15-6.08-2.22-1.5-4.86-2.25-7.91-2.25s-5.84.76-8.37,2.27-4.53,3.55-6.01,6.12c-1.49,2.57-2.23,5.4-2.23,8.52s.76,5.99,2.29,8.54c1.53,2.55,3.55,4.58,6.08,6.08,2.52,1.5,5.27,2.25,8.24,2.25Z"/>
        <path class="cls-2" d="M478.24,260.16h27.67v6.05h-27.67v-6.05Z"/>
        <path class="cls-2" d="M537.74,244.68c4.21,0,8.03,1.02,11.48,3.07,3.44,2.05,6.19,4.79,8.24,8.24,2.05,3.45,3.07,7.27,3.07,11.48,0,3.14-.59,6.09-1.77,8.84-1.18,2.75-2.82,5.17-4.91,7.26-2.09,2.09-4.51,3.73-7.26,4.91s-5.7,1.77-8.84,1.77c-3.57,0-6.66-.85-9.25-2.55-2.59-1.7-4.64-3.92-6.14-6.66v8.09h-6.05v-64.86h6.05v29.62c1.5-2.74,3.55-4.96,6.14-6.66,2.59-1.7,5.68-2.55,9.25-2.55ZM537.7,284.33c3.09,0,5.88-.76,8.39-2.27,2.51-1.51,4.51-3.55,6.01-6.12,1.5-2.57,2.25-5.39,2.25-8.47s-.76-6.03-2.29-8.58c-1.53-2.55-3.55-4.58-6.08-6.08-2.52-1.5-5.28-2.25-8.28-2.25s-5.7.76-7.93,2.29c-2.23,1.53-3.95,3.57-5.15,6.14-1.2,2.57-1.79,5.39-1.79,8.47s.6,5.99,1.82,8.54c1.21,2.55,2.93,4.58,5.17,6.08,2.23,1.5,4.87,2.25,7.89,2.25Z"/>
        <path class="cls-2" d="M602.99,245.89h6.05v43.24h-6.05l-.22-8.04c-1.41,2.74-3.39,4.95-5.92,6.64-2.54,1.69-5.56,2.53-9.08,2.53-3.17,0-6.14-.6-8.91-1.79-2.77-1.2-5.2-2.85-7.31-4.95-2.1-2.1-3.75-4.54-4.93-7.31-1.18-2.77-1.77-5.74-1.77-8.91s.58-6.04,1.75-8.78c1.17-2.74,2.78-5.15,4.84-7.22,2.06-2.08,4.45-3.7,7.18-4.86,2.72-1.17,5.64-1.75,8.76-1.75,3.6,0,6.74.86,9.43,2.57,2.68,1.72,4.81,3.96,6.4,6.72l-.22-8.09ZM587.64,284.37c3.09,0,5.74-.76,7.96-2.27,2.22-1.51,3.93-3.55,5.12-6.12,1.2-2.57,1.79-5.39,1.79-8.47s-.61-6.03-1.82-8.58c-1.21-2.55-2.93-4.58-5.15-6.08-2.22-1.5-4.86-2.25-7.91-2.25s-5.84.76-8.37,2.27-4.53,3.55-6.01,6.12c-1.49,2.57-2.23,5.4-2.23,8.52s.76,5.99,2.29,8.54c1.53,2.55,3.55,4.58,6.08,6.08,2.52,1.5,5.27,2.25,8.24,2.25Z"/>
        <path class="cls-2" d="M631.05,289.95c-2.36-.06-4.67-.49-6.92-1.3-2.25-.81-4.21-1.9-5.88-3.29-1.67-1.38-2.87-2.95-3.59-4.71l5.23-2.25c.46,1.12,1.32,2.16,2.57,3.09,1.25.94,2.69,1.69,4.3,2.25,1.61.56,3.21.84,4.8.84,1.76,0,3.4-.29,4.93-.86,1.53-.58,2.77-1.41,3.74-2.49.96-1.08,1.45-2.36,1.45-3.83,0-1.58-.52-2.83-1.56-3.74s-2.35-1.63-3.94-2.16c-1.59-.53-3.21-1.04-4.89-1.54-3.06-.84-5.75-1.76-8.09-2.77-2.33-1.01-4.16-2.3-5.47-3.87-1.31-1.57-1.97-3.6-1.97-6.08,0-2.62.74-4.89,2.23-6.81,1.48-1.92,3.43-3.4,5.84-4.45,2.41-1.05,4.98-1.58,7.72-1.58,3.52,0,6.72.76,9.62,2.29,2.9,1.53,4.99,3.56,6.29,6.1l-4.89,2.9c-.52-1.18-1.34-2.21-2.46-3.07-1.12-.86-2.4-1.54-3.83-2.03-1.43-.49-2.88-.75-4.35-.78-1.84-.03-3.56.24-5.15.8-1.58.56-2.86,1.39-3.83,2.49-.97,1.1-1.45,2.44-1.45,4.02s.48,2.79,1.43,3.61c.95.82,2.24,1.48,3.87,1.99,1.63.5,3.47,1.09,5.51,1.75,2.62.84,5.09,1.79,7.39,2.85,2.31,1.07,4.16,2.39,5.58,3.98,1.41,1.59,2.1,3.59,2.08,6.01,0,2.59-.78,4.86-2.33,6.79-1.56,1.93-3.58,3.41-6.05,4.43-2.48,1.02-5.13,1.49-7.96,1.41Z"/>
        <path class="cls-2" d="M673.55,290.25c-3.98,0-7.6-1.02-10.87-3.07s-5.88-4.79-7.83-8.24c-1.95-3.44-2.92-7.26-2.92-11.44,0-3.17.56-6.13,1.69-8.89,1.12-2.75,2.67-5.17,4.65-7.26,1.97-2.09,4.27-3.73,6.9-4.91,2.62-1.18,5.42-1.77,8.39-1.77,3.2,0,6.15.63,8.84,1.9,2.69,1.27,5.02,3.04,6.96,5.32,1.95,2.28,3.42,4.94,4.41,8,.99,3.06,1.4,6.36,1.23,9.9h-36.67c.35,2.74,1.22,5.19,2.62,7.35,1.4,2.16,3.18,3.87,5.36,5.12,2.18,1.25,4.59,1.9,7.24,1.92,2.88,0,5.48-.75,7.81-2.25,2.32-1.5,4.19-3.56,5.6-6.18l6.14,1.43c-1.73,3.83-4.34,6.97-7.83,9.4-3.49,2.44-7.39,3.65-11.72,3.65ZM658.16,264.91h30.74c-.2-2.68-1.02-5.14-2.44-7.37-1.43-2.23-3.26-4.02-5.51-5.36-2.25-1.34-4.71-2.01-7.39-2.01s-5.13.66-7.35,1.97c-2.22,1.31-4.04,3.08-5.45,5.32-1.41,2.23-2.28,4.72-2.59,7.46Z"/>
        <path class="cls-2" d="M737.55,224.27h6.05v64.86h-6.05v-8.09c-1.5,2.77-3.55,4.99-6.16,6.68-2.61,1.69-5.7,2.53-9.27,2.53-3.14,0-6.08-.59-8.82-1.77s-5.15-2.82-7.24-4.91c-2.09-2.09-3.73-4.5-4.91-7.24-1.18-2.74-1.77-5.68-1.77-8.82s.59-6.09,1.77-8.84c1.18-2.75,2.82-5.17,4.91-7.26,2.09-2.09,4.5-3.73,7.24-4.91,2.74-1.18,5.68-1.77,8.82-1.77,3.57,0,6.67.84,9.27,2.53,2.61,1.69,4.66,3.9,6.16,6.64v-29.62ZM722.15,284.37c3.09,0,5.74-.76,7.96-2.27,2.22-1.51,3.93-3.55,5.12-6.12,1.2-2.57,1.79-5.39,1.79-8.47s-.61-6.03-1.82-8.58c-1.21-2.55-2.93-4.58-5.15-6.08-2.22-1.5-4.86-2.25-7.91-2.25s-5.84.76-8.34,2.27-4.51,3.55-6.01,6.12c-1.5,2.57-2.25,5.4-2.25,8.52s.76,5.99,2.29,8.54c1.53,2.55,3.55,4.58,6.08,6.08,2.52,1.5,5.27,2.25,8.24,2.25Z"/>
        <path class="cls-2" d="M788.09,289.95c-2.36-.06-4.67-.49-6.92-1.3-2.25-.81-4.21-1.9-5.88-3.29-1.67-1.38-2.87-2.95-3.59-4.71l5.23-2.25c.46,1.12,1.32,2.16,2.57,3.09,1.25.94,2.69,1.69,4.3,2.25,1.61.56,3.21.84,4.8.84,1.76,0,3.4-.29,4.93-.86,1.53-.58,2.77-1.41,3.74-2.49.96-1.08,1.45-2.36,1.45-3.83,0-1.58-.52-2.83-1.56-3.74s-2.35-1.63-3.94-2.16c-1.59-.53-3.21-1.04-4.89-1.54-3.06-.84-5.75-1.76-8.09-2.77-2.33-1.01-4.16-2.3-5.47-3.87-1.31-1.57-1.97-3.6-1.97-6.08,0-2.62.74-4.89,2.23-6.81,1.48-1.92,3.43-3.4,5.84-4.45,2.41-1.05,4.98-1.58,7.72-1.58,3.52,0,6.72.76,9.62,2.29,2.9,1.53,4.99,3.56,6.29,6.1l-4.89,2.9c-.52-1.18-1.34-2.21-2.46-3.07-1.12-.86-2.4-1.54-3.83-2.03-1.43-.49-2.88-.75-4.35-.78-1.84-.03-3.56.24-5.15.8-1.58.56-2.86,1.39-3.83,2.49-.97,1.1-1.45,2.44-1.45,4.02s.48,2.79,1.43,3.61c.95.82,2.24,1.48,3.87,1.99,1.63.5,3.47,1.09,5.51,1.75,2.62.84,5.09,1.79,7.39,2.85,2.31,1.07,4.16,2.39,5.58,3.98,1.41,1.59,2.1,3.59,2.08,6.01,0,2.59-.78,4.86-2.33,6.79-1.56,1.93-3.58,3.41-6.05,4.43-2.48,1.02-5.13,1.49-7.96,1.41Z"/>
        <path class="cls-2" d="M833.97,251.94h-10.33l-.04,37.19h-6.05l.04-37.19h-7.83v-6.05h7.83l-.04-13.58h6.05l.04,13.58h10.33v6.05Z"/>
        <path class="cls-2" d="M841.71,289.13v-43.24h6.05v5.97c1.53-2.19,3.52-3.93,5.97-5.23s5.12-1.95,8-1.95c1.67,0,3.29.22,4.84.65l-2.47,6.01c-1.21-.37-2.39-.56-3.55-.56-2.34,0-4.48.58-6.42,1.73-1.95,1.15-3.49,2.7-4.65,4.63-1.15,1.93-1.73,4.08-1.73,6.44v25.55h-6.05Z"/>
        <path class="cls-2" d="M905.27,245.89h6.05v43.24h-6.05l-.22-8.04c-1.41,2.74-3.39,4.95-5.92,6.64-2.54,1.69-5.56,2.53-9.08,2.53-3.17,0-6.14-.6-8.91-1.79-2.77-1.2-5.2-2.85-7.31-4.95-2.1-2.1-3.75-4.54-4.93-7.31-1.18-2.77-1.77-5.74-1.77-8.91s.58-6.04,1.75-8.78c1.17-2.74,2.78-5.15,4.84-7.22,2.06-2.08,4.45-3.7,7.18-4.86,2.72-1.17,5.64-1.75,8.76-1.75,3.6,0,6.74.86,9.43,2.57,2.68,1.72,4.81,3.96,6.4,6.72l-.22-8.09ZM889.92,284.37c3.09,0,5.74-.76,7.96-2.27,2.22-1.51,3.93-3.55,5.12-6.12,1.2-2.57,1.79-5.39,1.79-8.47s-.61-6.03-1.82-8.58c-1.21-2.55-2.93-4.58-5.15-6.08-2.22-1.5-4.86-2.25-7.91-2.25s-5.84.76-8.37,2.27-4.53,3.55-6.01,6.12c-1.49,2.57-2.23,5.4-2.23,8.52s.76,5.99,2.29,8.54c1.53,2.55,3.55,4.58,6.08,6.08,2.52,1.5,5.27,2.25,8.24,2.25Z"/>
        <path class="cls-2" d="M942.07,251.94h-10.33l-.04,37.19h-6.05l.04-37.19h-7.83v-6.05h7.83l-.04-13.58h6.05l.04,13.58h10.33v6.05Z"/>
        <path class="cls-2" d="M967.66,290.25c-3.98,0-7.6-1.02-10.87-3.07s-5.88-4.79-7.83-8.24c-1.95-3.44-2.92-7.26-2.92-11.44,0-3.17.56-6.13,1.69-8.89,1.12-2.75,2.67-5.17,4.65-7.26,1.97-2.09,4.27-3.73,6.9-4.91,2.62-1.18,5.42-1.77,8.39-1.77,3.2,0,6.15.63,8.84,1.9,2.69,1.27,5.02,3.04,6.96,5.32,1.95,2.28,3.42,4.94,4.41,8,.99,3.06,1.4,6.36,1.23,9.9h-36.67c.35,2.74,1.22,5.19,2.62,7.35,1.4,2.16,3.18,3.87,5.36,5.12,2.18,1.25,4.59,1.9,7.24,1.92,2.88,0,5.48-.75,7.81-2.25,2.32-1.5,4.19-3.56,5.6-6.18l6.14,1.43c-1.73,3.83-4.34,6.97-7.83,9.4-3.49,2.44-7.39,3.65-11.72,3.65ZM952.27,264.91h30.74c-.2-2.68-1.02-5.14-2.44-7.37-1.43-2.23-3.26-4.02-5.51-5.36-2.25-1.34-4.71-2.01-7.39-2.01s-5.13.66-7.35,1.97c-2.22,1.31-4.04,3.08-5.45,5.32-1.41,2.23-2.28,4.72-2.59,7.46Z"/>
        <path class="cls-2" d="M1030.45,245.89h6.05v44.84c0,2.77-.6,5.36-1.79,7.78-1.2,2.42-2.81,4.55-4.84,6.38-2.03,1.83-4.35,3.26-6.94,4.3-2.59,1.04-5.29,1.56-8.09,1.56-3,0-5.9-.69-8.69-2.05-2.8-1.37-5.22-3.19-7.29-5.47-2.06-2.28-3.52-4.8-4.39-7.57l5.58-2.55c.55,2.16,1.58,4.11,3.09,5.86,1.51,1.74,3.3,3.13,5.36,4.15,2.06,1.02,4.17,1.53,6.34,1.53,1.99,0,3.91-.37,5.77-1.1,1.86-.74,3.53-1.74,5.02-3.01,1.48-1.27,2.66-2.75,3.52-4.43.87-1.69,1.3-3.48,1.3-5.38v-9.56c-1.5,2.71-3.52,4.9-6.08,6.57-2.55,1.67-5.51,2.51-8.89,2.51-3.03,0-5.87-.59-8.54-1.77-2.67-1.18-5.01-2.82-7.03-4.91-2.02-2.09-3.6-4.5-4.73-7.24-1.14-2.74-1.71-5.68-1.71-8.82s.57-6.09,1.71-8.84c1.14-2.75,2.72-5.17,4.73-7.26,2.02-2.09,4.36-3.73,7.03-4.91,2.67-1.18,5.51-1.77,8.54-1.77,3.37,0,6.34.83,8.89,2.49,2.55,1.66,4.58,3.86,6.08,6.59v-7.91ZM1015.53,284.37c3,0,5.58-.78,7.76-2.34,2.18-1.56,3.86-3.62,5.04-6.18,1.18-2.57,1.77-5.35,1.77-8.35s-.6-5.9-1.79-8.45c-1.2-2.55-2.89-4.6-5.08-6.14-2.19-1.54-4.76-2.31-7.7-2.31s-5.61.76-8.02,2.27-4.32,3.55-5.73,6.12c-1.41,2.57-2.12,5.4-2.12,8.52s.72,5.95,2.16,8.5c1.44,2.55,3.37,4.58,5.77,6.1,2.41,1.51,5.05,2.27,7.94,2.27Z"/>
        <path class="cls-2" d="M1073.6,245.89h6.4l-23.65,64.86h-6.44l7.87-21.62-15.52-43.24h6.62l11.93,34.89,12.8-34.89Z"/>
      </g>
    </g>
  </g>
</svg>