<?xml version="1.0" encoding="UTF-8"?>
<svg id="Capa_2" data-name="Capa 2" xmlns="http://www.w3.org/2000/svg" viewBox="0 0 1080 970.84">
  <defs>
    <style>
      .cls-1 {
        fill: #4964f6;
      }
    </style>
  </defs>
  <g id="Capa_1-2" data-name="Capa 1">
    <g>
      <path class="cls-1" d="M1080,346.89v528.01c0,35.38-42.81,53.14-67.86,28.09l-244.12-244.12c-7.48-7.48-11.64-17.57-11.64-28.14v-267.39c0-21.97-17.81-39.73-39.73-39.73h-264.03c-21.92,0-39.73-17.81-39.73-39.73V39.73c0-21.92,17.81-39.73,39.73-39.73h280.53c13.79,0,27.02,5.05,37.25,14.16l295.01,295.06s.05.05.05.05c9.3,10.28,14.54,23.7,14.54,37.62Z"/>
      <path class="cls-1" d="M0,623.94V95.93c0-35.38,42.81-53.14,67.86-28.09l244.12,244.12c7.48,7.48,11.64,17.57,11.64,28.14v267.39c0,21.97,17.81,39.73,39.73,39.73h264.03c21.92,0,39.73,17.81,39.73,39.73v244.16c0,21.92-17.81,39.73-39.73,39.73h-280.53c-13.79,0-27.02-5.05-37.25-14.16L14.58,661.61s-.05-.05-.05-.05c-9.3-10.28-14.54-23.7-14.54-37.62Z"/>
    </g>
  </g>
</svg>