<?xml version="1.0" encoding="UTF-8"?>
<svg id="Capa_2" data-name="Capa 2" xmlns="http://www.w3.org/2000/svg" viewBox="0 0 1080 290.3">
  <defs>
    <style>
      .cls-1 {
        fill: #4964f6;
      }

      .cls-2 {
        fill: #fdffff;
      }
    </style>
  </defs>
  <g id="Capa_1-2" data-name="Capa 1">
    <g>
      <g>
        <path class="cls-2" d="M406.2,45.42h-30.55v74.16c0,4.93-1.22,9.42-3.64,13.47-2.36,3.93-5.45,7.09-9.31,9.42-.11.09-.22.15-.33.22-4.01,2.37-8.51,3.56-13.54,3.56s-9.28-1.19-13.34-3.56c-4.04-2.37-7.29-5.6-9.7-9.65-2.43-4.04-3.64-8.53-3.64-13.47V45.42h-30.57v82.18c0,9.18,2.24,17.51,6.72,24.99,4.45,7.48,10.46,13.45,17.98,17.92,7.51,4.47,15.82,6.7,24.93,6.7,6.75,0,13.1-1.32,19.03-3.93,5.94-2.63,11.06-6.21,15.42-10.72l.11,11.41h30.57l-.13-128.54Z"/>
        <path class="cls-2" d="M668.63,143.83c-3.93,1.87-8.07,2.82-12.41,2.82-6.01,0-11.45-1.63-16.29-4.9-4.84-3.25-8.68-7.57-11.52-12.97-2.84-5.38-4.27-11.2-4.27-17.47s1.43-12.21,4.27-17.6c2.84-5.38,6.68-9.72,11.52-13.02,4.84-3.3,10.28-4.95,16.29-4.95,4.17,0,8.25.93,12.22,2.76,3.95,1.84,7.4,4.43,10.33,7.77l27.55-14.78c-5.75-8.01-12.99-14.41-21.67-19.16-8.68-4.77-18.16-7.14-28.44-7.14-8.61,0-16.7,1.71-24.3,5.14-7.61,3.41-14.27,8.16-19.98,14.21-5.73,6.05-10.2,13.08-13.47,21.05-3.26,7.96-4.88,16.55-4.88,25.73,0,12.11,2.82,23.15,8.44,33.13,5.64,9.98,13.21,17.94,22.69,23.87,9.48,5.92,19.98,8.89,31.5,8.89,10.28,0,19.76-2.37,28.44-7.14,8.68-4.75,15.92-11.06,21.67-18.9l-27.55-14.91c-2.84,3.17-6.23,5.69-10.15,7.59Z"/>
        <path class="cls-2" d="M791.32,45.18c-6.77,0-13.08,1.28-18.95,3.89-5.87,2.61-10.9,6.15-15.12,10.6l-.13-14.99h-30.22l.13,132.52h30.22v-75.04c0-4.88,1.17-9.3,3.54-13.32,2.35-4,5.52-7.19,9.54-9.54,4-2.35,8.44-3.52,13.32-3.52,3.14,0,6.27.61,9.41,1.85l11.89-30.47c-4.53-1.32-9.08-1.98-13.63-1.98Z"/>
        <path class="cls-2" d="M921.7,78c-5.64-10.02-13.19-17.99-22.67-23.93-9.48-5.94-19.98-8.89-31.5-8.89-8.61,0-16.71,1.71-24.32,5.14-7.59,3.41-14.25,8.16-19.98,14.21-5.71,6.05-10.2,13.08-13.47,21.05-3.25,7.96-4.88,16.55-4.88,25.73,0,12.11,2.82,23.15,8.46,33.13,5.64,9.98,13.19,17.94,22.67,23.87,9.48,5.92,19.98,8.89,31.52,8.89,8.68,0,16.81-1.71,24.36-5.14,7.55-3.41,14.19-8.16,19.92-14.21,5.71-6.05,10.2-13.04,13.47-20.98,3.25-7.94,4.88-16.45,4.88-25.56,0-12.19-2.82-23.3-8.46-33.32ZM895.39,128.86c-2.8,5.34-6.62,9.65-11.46,12.89-4.84,3.26-10.31,4.9-16.4,4.9-5.77,0-11.09-1.58-15.97-4.71-4.9-3.12-8.79-7.36-11.72-12.71-2.93-5.34-4.38-11.32-4.38-17.92s1.41-12.22,4.25-17.66c2.84-5.44,6.7-9.78,11.54-13.02,4.92-3.31,10.42-4.95,16.56-4.9,5.66.05,11.26,1.79,15.96,4.93,4.82,3.22,8.65,7.48,11.49,12.81,2.89,5.38,4.32,11.33,4.32,17.85s-1.39,12.21-4.19,17.55Z"/>
        <path class="cls-2" d="M1074.97,85.32c-3.34-7.85-8-14.77-14-20.75-5.98-6-12.9-10.68-20.75-14.07-7.85-3.39-16.31-5.08-25.39-5.08-7.93,0-14.86,1.76-20.75,5.27-5.91,3.52-10.9,8.07-14.93,13.69v-19.69h-30.24v158.96l17.71,17.71c4.62,4.62,12.52,1.35,12.52-5.19v-59.11c4.04,5.61,9.03,10.18,14.93,13.69,5.89,3.5,12.82,5.27,20.75,5.27,9.08,0,17.54-1.69,25.39-5.08,7.85-3.39,14.77-8.07,20.75-14.07,6-5.98,10.66-12.93,14-20.86,3.36-7.94,5.03-16.4,5.03-25.41s-1.67-17.43-5.03-25.26ZM1044.55,128.86c-3.14,5.5-7.34,9.85-12.62,13.08-5.28,3.21-11.12,4.83-17.47,4.83s-11.91-1.63-16.86-4.9c-4.95-3.25-8.84-7.63-11.65-13.12-2.81-5.5-4.2-11.56-4.2-18.16s1.39-12.64,4.2-18.09c2.81-5.45,6.7-9.8,11.65-13.06,4.95-3.27,10.57-4.9,16.86-4.9s12.27,1.63,17.52,4.9c5.25,3.27,9.43,7.61,12.57,13.06,3.16,5.45,4.72,11.48,4.72,18.09s-1.56,12.79-4.72,18.27Z"/>
        <path class="cls-2" d="M550.21,85.32c-3.34-7.85-8-14.77-14-20.75-5.98-6-12.9-10.68-20.75-14.07-7.85-3.39-16.31-5.08-25.39-5.08-7.93,0-14.86,1.76-20.75,5.27-5.91,3.52-10.9,8.07-14.93,13.69v-19.69h-30.24v158.96l17.71,17.71c4.62,4.62,12.52,1.35,12.52-5.19v-59.11c4.04,5.61,9.03,10.18,14.93,13.69,5.89,3.5,12.82,5.27,20.75,5.27,9.08,0,17.54-1.69,25.39-5.08,7.85-3.39,14.77-8.07,20.75-14.07,6-5.98,10.66-12.93,14-20.86,3.36-7.94,5.03-16.4,5.03-25.41s-1.67-17.43-5.03-25.26ZM519.79,128.86c-3.14,5.5-7.34,9.85-12.62,13.08-5.28,3.21-11.12,4.83-17.47,4.83s-11.91-1.63-16.86-4.9c-4.95-3.25-8.84-7.63-11.65-13.12-2.81-5.5-4.2-11.56-4.2-18.16s1.39-12.64,4.2-18.09c2.81-5.45,6.7-9.8,11.65-13.06,4.95-3.27,10.57-4.9,16.86-4.9s12.27,1.63,17.52,4.9c5.25,3.27,9.43,7.61,12.57,13.06,3.16,5.45,4.72,11.48,4.72,18.09s-1.56,12.79-4.72,18.27Z"/>
      </g>
      <g>
        <path class="cls-1" d="M247.65,79.55v121.08c0,8.11-9.82,12.19-15.56,6.44l-55.98-55.98c-1.71-1.71-2.67-4.03-2.67-6.45v-61.31c0-5.04-4.08-9.11-9.11-9.11h-60.54c-5.03,0-9.11-4.08-9.11-9.11V9.11c0-5.03,4.08-9.11,9.11-9.11h64.33c3.16,0,6.19,1.16,8.54,3.25l67.65,67.66s.01.01.01.01c2.13,2.36,3.33,5.43,3.33,8.63Z"/>
        <path class="cls-1" d="M0,143.07V22c0-8.11,9.82-12.19,15.56-6.44l55.98,55.98c1.71,1.71,2.67,4.03,2.67,6.45v61.31c0,5.04,4.08,9.11,9.11,9.11h60.54c5.03,0,9.11,4.08,9.11,9.11v55.99c0,5.03-4.08,9.11-9.11,9.11h-64.33c-3.16,0-6.19-1.16-8.54-3.25L3.34,151.71s-.01-.01-.01-.01c-2.13-2.36-3.33-5.43-3.33-8.63Z"/>
      </g>
      <g>
        <path class="cls-2" d="M291.58,289.51v-42.36h25.78v4.24h-21.55v13.31h17.82v4.24h-17.82v16.34h21.55v4.24h-25.78Z"/>
        <path class="cls-2" d="M338.81,290.3c-2.26,0-4.44-.35-6.55-1.06-2.11-.71-3.95-1.71-5.52-3.03-1.57-1.31-2.68-2.87-3.33-4.69l3.96-1.48c.44,1.25,1.26,2.33,2.44,3.22,1.18.9,2.56,1.59,4.15,2.07,1.58.48,3.2.73,4.86.73,1.94,0,3.74-.32,5.42-.97,1.67-.65,3.03-1.55,4.05-2.71s1.54-2.53,1.54-4.1-.54-2.91-1.6-3.93-2.45-1.84-4.13-2.44c-1.68-.59-3.44-1.05-5.28-1.38-2.89-.5-5.47-1.19-7.76-2.06s-4.1-2.09-5.43-3.68c-1.33-1.58-2-3.68-2-6.28,0-2.44.71-4.56,2.12-6.35,1.41-1.8,3.27-3.19,5.58-4.18,2.31-.99,4.81-1.48,7.49-1.48,2.2,0,4.35.34,6.45,1.03,2.1.69,3.95,1.68,5.55,2.99,1.6,1.31,2.76,2.92,3.46,4.81l-4.02,1.45c-.44-1.27-1.26-2.36-2.44-3.25-1.18-.9-2.56-1.58-4.13-2.06-1.57-.47-3.2-.71-4.87-.71-1.92-.02-3.71.3-5.37.95-1.66.66-3.01,1.56-4.04,2.72-1.03,1.16-1.54,2.52-1.54,4.07,0,1.81.48,3.21,1.44,4.19.96.98,2.26,1.71,3.92,2.19s3.52.92,5.6,1.3c2.7.46,5.21,1.19,7.53,2.16,2.32.98,4.19,2.28,5.6,3.9,1.41,1.62,2.12,3.63,2.12,6.01s-.71,4.53-2.12,6.34c-1.41,1.81-3.27,3.2-5.58,4.19-2.31.99-4.83,1.48-7.55,1.48Z"/>
        <path class="cls-2" d="M391.37,247.15v4.24h-14.53v38.13h-4.24v-38.13h-14.49v-4.24h33.26Z"/>
        <path class="cls-2" d="M394.97,290.3c-.67,0-1.23-.24-1.69-.71-.46-.47-.7-1.05-.7-1.74,0-.65.23-1.2.7-1.68.46-.47,1.03-.71,1.69-.71s1.27.24,1.74.71c.47.47.71,1.03.71,1.68,0,.69-.24,1.27-.71,1.74s-1.05.71-1.74.71Z"/>
        <path class="cls-2" d="M433.4,247.15h5.27l15.43,42.36h-4.51l-3.3-9.08h-20.49l-3.3,9.08h-4.51l15.4-42.36ZM427.35,276.2h17.37l-8.69-23.85-8.68,23.85Z"/>
        <path class="cls-2" d="M486.96,247.15v4.24h-14.53v38.13h-4.24v-38.13h-14.49v-4.24h33.26Z"/>
        <path class="cls-2" d="M506.33,289.51v-3.75c1.65-1.53,3.47-3.21,5.45-5.04,1.98-1.83,3.94-3.71,5.89-5.66,1.95-1.95,3.73-3.87,5.34-5.78,1.61-1.91,2.91-3.71,3.89-5.42.98-1.7,1.47-3.21,1.47-4.52,0-1.59-.39-3.05-1.17-4.37-.78-1.32-1.81-2.38-3.12-3.18s-2.75-1.2-4.34-1.2-3.05.4-4.37,1.2c-1.32.8-2.38,1.86-3.16,3.18-.79,1.32-1.18,2.78-1.18,4.37h-4.24c0-2.42.59-4.61,1.77-6.57s2.75-3.52,4.71-4.68c1.96-1.16,4.12-1.74,6.48-1.74s4.51.59,6.46,1.76,3.5,2.73,4.66,4.69c1.16,1.96,1.74,4.14,1.74,6.54,0,1.43-.38,3-1.14,4.7-.76,1.71-1.78,3.47-3.07,5.3-1.29,1.83-2.74,3.67-4.36,5.52-1.61,1.86-3.3,3.67-5.05,5.43s-3.46,3.42-5.11,4.98h19.37v4.24h-26.9Z"/>
        <path class="cls-2" d="M553.41,290.3c-2.54,0-4.81-.57-6.81-1.71-2-1.14-3.7-2.72-5.11-4.74-1.41-2.02-2.49-4.35-3.22-7s-1.1-5.49-1.1-8.52.37-5.87,1.1-8.53,1.81-5,3.22-7c1.41-2.01,3.12-3.58,5.11-4.72,2-1.14,4.27-1.71,6.81-1.71s4.78.57,6.78,1.71c2,1.14,3.69,2.71,5.08,4.72s2.45,4.34,3.19,7c.74,2.66,1.1,5.51,1.1,8.53s-.37,5.87-1.1,8.52c-.74,2.65-1.8,4.99-3.19,7-1.39,2.02-3.09,3.6-5.08,4.74-2,1.14-4.26,1.71-6.78,1.71ZM553.41,286.06c2.66,0,4.9-.82,6.7-2.45,1.81-1.63,3.16-3.8,4.07-6.49.91-2.69,1.36-5.62,1.36-8.79,0-3.35-.47-6.36-1.41-9.03-.94-2.67-2.31-4.79-4.12-6.35-1.81-1.56-4.01-2.34-6.61-2.34-2.06,0-3.85.47-5.39,1.42s-2.8,2.25-3.81,3.9c-1.01,1.65-1.77,3.55-2.27,5.67-.5,2.13-.76,4.37-.76,6.73,0,3.19.46,6.13,1.39,8.82.93,2.69,2.3,4.85,4.11,6.47,1.82,1.62,4.05,2.44,6.72,2.44Z"/>
        <path class="cls-2" d="M573.81,289.51v-3.75c1.65-1.53,3.47-3.21,5.45-5.04,1.98-1.83,3.94-3.71,5.89-5.66,1.95-1.95,3.73-3.87,5.34-5.78s2.91-3.71,3.89-5.42c.98-1.7,1.47-3.21,1.47-4.52,0-1.59-.39-3.05-1.17-4.37-.78-1.32-1.81-2.38-3.12-3.18s-2.75-1.2-4.34-1.2-3.05.4-4.37,1.2c-1.32.8-2.38,1.86-3.16,3.18-.79,1.32-1.18,2.78-1.18,4.37h-4.24c0-2.42.59-4.61,1.77-6.57s2.75-3.52,4.71-4.68c1.96-1.16,4.12-1.74,6.48-1.74s4.51.59,6.46,1.76,3.5,2.73,4.66,4.69c1.16,1.96,1.74,4.14,1.74,6.54,0,1.43-.38,3-1.14,4.7-.76,1.71-1.78,3.47-3.07,5.3-1.29,1.83-2.74,3.67-4.36,5.52-1.61,1.86-3.3,3.67-5.05,5.43s-3.46,3.42-5.11,4.98h19.37v4.24h-26.9Z"/>
        <path class="cls-2" d="M620.89,290.3c-2.54,0-4.81-.57-6.81-1.71-2-1.14-3.7-2.72-5.11-4.74-1.41-2.02-2.49-4.35-3.22-7s-1.1-5.49-1.1-8.52.37-5.87,1.1-8.53,1.81-5,3.22-7,3.12-3.58,5.11-4.72c2-1.14,4.27-1.71,6.81-1.71s4.78.57,6.78,1.71c2,1.14,3.69,2.71,5.08,4.72s2.45,4.34,3.19,7c.74,2.66,1.1,5.51,1.1,8.53s-.37,5.87-1.1,8.52c-.74,2.65-1.8,4.99-3.19,7-1.39,2.02-3.09,3.6-5.08,4.74-2,1.14-4.26,1.71-6.78,1.71ZM620.89,286.06c2.66,0,4.9-.82,6.7-2.45,1.81-1.63,3.16-3.8,4.07-6.49.91-2.69,1.36-5.62,1.36-8.79,0-3.35-.47-6.36-1.41-9.03-.94-2.67-2.31-4.79-4.12-6.35-1.81-1.56-4.01-2.34-6.61-2.34-2.06,0-3.85.47-5.39,1.42s-2.8,2.25-3.81,3.9c-1.01,1.65-1.77,3.55-2.27,5.67-.5,2.13-.76,4.37-.76,6.73,0,3.19.46,6.13,1.39,8.82.93,2.69,2.3,4.85,4.11,6.47,1.82,1.62,4.05,2.44,6.72,2.44Z"/>
      </g>
    </g>
  </g>
</svg>